<?xml version="1.0" standalone="no"?>
<!DOCTYPE svg PUBLIC "-//W3C//DTD SVG 20010904//EN"
 "http://www.w3.org/TR/2001/REC-SVG-20010904/DTD/svg10.dtd">
<svg version="1.0" xmlns="http://www.w3.org/2000/svg"
 width="200.000000pt" height="200.000000pt" viewBox="0 0 200.000000 200.000000"
 preserveAspectRatio="xMidYMid meet">
<metadata>
Created by potrace 1.10, written by Peter Selinger 2001-2011
</metadata>
<g transform="translate(0.000000,200.000000) scale(0.100000,-0.100000)"
fill="#000000" stroke="none">
<path d="M1000 1710 c-14 -4 -56 -8 -95 -9 -81 -1 -128 -24 -139 -66 -5 -21 1
-35 36 -75 24 -27 51 -49 60 -50 27 0 67 21 83 46 8 13 25 29 37 35 22 12 22
11 6 -8 -23 -26 -23 -44 3 -77 25 -31 18 -33 -20 -5 -27 20 -30 20 -60 5 -47
-25 -63 -56 -64 -133 l-2 -68 45 -22 c39 -19 42 -22 19 -23 -30 0 -47 -16 -59
-57 -7 -23 -8 -18 -9 30 -1 66 -13 72 -64 35 -16 -13 -66 -43 -110 -68 -71
-40 -84 -52 -114 -105 -23 -41 -31 -68 -27 -84 4 -21 3 -23 -10 -12 -9 8 -31
11 -53 9 -30 -4 -33 -2 -18 6 61 36 125 121 110 146 -11 18 -46 11 -83 -17
-26 -20 -32 -22 -19 -7 21 26 22 42 0 66 -16 18 -15 18 27 3 64 -23 117 -19
185 13 71 34 120 73 140 113 9 15 16 60 17 98 3 83 -13 112 -83 148 -35 19
-55 23 -98 19 -75 -7 -168 -54 -225 -116 -59 -63 -59 -90 -1 -103 55 -12 142
0 174 23 15 10 40 21 57 25 28 6 27 5 -7 -14 -53 -29 -56 -47 -13 -87 44 -42
32 -44 -27 -4 -38 26 -53 30 -114 30 -109 0 -206 -32 -251 -82 -60 -66 -62
-137 -4 -203 11 -12 19 -42 22 -78 8 -95 64 -151 151 -151 71 0 127 31 181
101 25 31 64 69 87 85 39 26 153 68 185 68 8 0 33 15 57 33 24 18 58 39 76 47
26 10 31 17 26 34 -28 92 -12 184 45 249 20 23 43 53 50 67 7 14 28 49 48 78
39 58 38 76 -9 99 -33 16 -118 24 -149 13z"/>
</g>
</svg>
