<?xml version="1.0" standalone="no"?>
<!DOCTYPE svg PUBLIC "-//W3C//DTD SVG 20010904//EN"
 "http://www.w3.org/TR/2001/REC-SVG-20010904/DTD/svg10.dtd">
<svg version="1.0" xmlns="http://www.w3.org/2000/svg"
 width="200.000000pt" height="200.000000pt" viewBox="0 0 200.000000 200.000000"
 preserveAspectRatio="xMidYMid meet">
<metadata>
Created by potrace 1.10, written by Peter Selinger 2001-2011
</metadata>
<g transform="translate(0.000000,200.000000) scale(0.100000,-0.100000)"
fill="#000000" stroke="none">
<path d="M1244 1626 c-36 -16 -92 -80 -101 -116 -3 -14 -25 -46 -48 -71 -49
-53 -69 -105 -62 -161 8 -57 30 -86 74 -93 21 -4 56 -13 78 -21 23 -8 52 -14
66 -14 14 0 41 -5 59 -12 30 -10 35 -9 52 12 10 13 18 40 19 64 l1 41 8 -33
c10 -44 23 -55 60 -55 20 0 26 -3 18 -9 -7 -4 -25 -8 -39 -8 -14 0 -34 -6 -44
-14 -16 -12 -18 -19 -10 -41 16 -46 38 -52 88 -27 24 12 58 22 74 22 42 0 56
21 57 89 1 45 -4 66 -20 88 -25 35 -107 78 -180 94 -81 18 -110 -1 -130 -86
l-7 -30 -8 32 c-6 21 -18 35 -37 41 l-27 10 32 1 c41 1 93 44 93 77 0 24 -19
47 -56 71 -16 11 -14 11 10 2 22 -7 34 -6 52 6 13 8 24 21 24 27 0 6 3 9 6 5
3 -3 -2 -19 -12 -36 -28 -47 -9 -75 63 -95 87 -24 180 -72 200 -103 14 -21 18
-45 17 -100 -1 -40 3 -73 7 -73 5 0 29 19 53 43 23 23 50 48 59 55 11 8 17 27
17 54 0 34 -6 46 -35 74 -19 18 -35 40 -35 49 0 50 -74 126 -142 147 -25 7
-55 27 -73 47 -16 19 -44 40 -62 47 -41 18 -119 17 -159 0z"/>
</g>
</svg>
