<?xml version="1.0" standalone="no"?>
<!DOCTYPE svg PUBLIC "-//W3C//DTD SVG 20010904//EN"
 "http://www.w3.org/TR/2001/REC-SVG-20010904/DTD/svg10.dtd">
<svg version="1.0" xmlns="http://www.w3.org/2000/svg"
 width="200.000000pt" height="200.000000pt" viewBox="0 0 200.000000 200.000000"
 preserveAspectRatio="xMidYMid meet">
<metadata>
Created by potrace 1.10, written by Peter Selinger 2001-2011
</metadata>
<g transform="translate(0.000000,200.000000) scale(0.100000,-0.100000)"
fill="#000000" stroke="none">
<path d="M1015 1142 c-52 -18 -115 -57 -115 -71 0 -5 -28 -14 -62 -21 -35 -6
-81 -20 -104 -29 -164 -72 -207 -263 -80 -351 83 -56 173 -62 314 -18 66 20
68 20 158 3 78 -16 101 -17 164 -6 96 15 138 34 150 66 18 48 11 67 -42 117
l-52 48 -75 0 c-41 0 -100 5 -130 11 -51 11 -60 10 -98 -10 -25 -12 -61 -21
-88 -21 -48 0 -67 -12 -112 -75 l-22 -30 19 55 c10 30 16 58 13 63 -3 5 -19
15 -37 23 -42 18 -9 18 44 -1 63 -22 118 -19 179 11 47 24 56 25 94 15 46 -12
82 -16 140 -13 47 2 83 36 92 86 15 76 -33 126 -120 126 -25 0 -58 6 -73 14
-48 24 -103 27 -157 8z"/>
</g>
</svg>
