<?xml version="1.0" standalone="no"?>
<!DOCTYPE svg PUBLIC "-//W3C//DTD SVG 20010904//EN"
 "http://www.w3.org/TR/2001/REC-SVG-20010904/DTD/svg10.dtd">
<svg version="1.0" xmlns="http://www.w3.org/2000/svg"
 width="200.000000pt" height="200.000000pt" viewBox="0 0 200.000000 200.000000"
 preserveAspectRatio="xMidYMid meet">
<metadata>
Created by potrace 1.10, written by Peter Selinger 2001-2011
</metadata>
<g transform="translate(0.000000,200.000000) scale(0.100000,-0.100000)"
fill="#000000" stroke="none">
<path d="M1724 1166 c-17 -8 -48 -34 -68 -59 -37 -45 -39 -46 -95 -45 -99 1
-171 -56 -171 -137 0 -36 5 -48 31 -72 40 -36 59 -81 59 -137 0 -44 1 -46 39
-57 49 -14 125 1 181 36 52 33 52 59 2 108 -34 33 -44 37 -92 38 -30 1 -44 4
-30 6 37 7 60 32 61 67 1 31 1 31 13 -8 14 -44 81 -112 121 -122 20 -5 32 -1
48 15 19 18 22 32 20 89 -3 111 -3 130 0 188 2 50 -1 58 -26 80 -32 27 -49 29
-93 10z"/>
</g>
</svg>
