<svg xmlns="http://www.w3.org/2000/svg" xmlns:xlink="http://www.w3.org/1999/xlink" width="200" zoomAndPan="magnify" viewBox="0 0 150 149.999998" height="200" preserveAspectRatio="xMidYMid meet" version="1.0"><defs><clipPath id="c8a2398d2e"><path d="M 104 61 L 139.71875 61 L 139.71875 101 L 104 101 Z M 104 61 " clip-rule="nonzero"/></clipPath></defs><rect x="-15" width="180" fill="#ffffff" y="-15" height="179.999997" fill-opacity="1"/><rect x="-15" width="180" fill="#ffffff" y="-15" height="179.999997" fill-opacity="1"/><path fill="#000000" d="M 124.425781 103.34375 C 121.46875 104.050781 116.296875 104.535156 110.078125 101.910156 C 108.761719 101.355469 107.289062 101.34375 105.960938 101.863281 C 98.921875 104.601562 87.808594 104.429688 81.582031 102.992188 C 76.640625 101.851562 75.445312 104.488281 77.671875 106.902344 C 81.96875 111.558594 88.753906 111.574219 92.667969 118.421875 C 96.578125 125.265625 96.070312 128.507812 97.269531 129.265625 C 98.464844 130.027344 104.0625 128.84375 105.164062 126.460938 C 105.816406 125.050781 99.632812 123.691406 98.320312 116.464844 C 98.101562 115.269531 111.03125 119.726562 118.855469 114.511719 C 123.347656 111.511719 125.402344 107.980469 126.339844 105.515625 C 126.800781 104.292969 125.703125 103.039062 124.425781 103.34375 Z M 124.425781 103.34375 " fill-opacity="1" fill-rule="nonzero"/><path fill="#000000" d="M 58.058594 81.882812 C 58.058594 81.882812 61.078125 80.976562 65.535156 83.089844 C 69.394531 84.921875 76.539062 83.808594 80.34375 80.777344 C 81.324219 79.996094 82.664062 79.8125 83.8125 80.324219 C 85.628906 81.128906 88.683594 82.078125 92.941406 82.03125 C 100.265625 81.957031 101.019531 80.371094 102.378906 76.445312 C 103.738281 72.519531 102.617188 67.324219 97.09375 66.023438 C 94.605469 65.4375 92.714844 65.738281 91.691406 66.019531 C 91.132812 66.175781 90.535156 66.082031 90.050781 65.757812 C 88.214844 64.527344 83.273438 61.898438 76.933594 63.910156 C 68.855469 66.476562 67.117188 70.628906 67.117188 70.628906 C 67.117188 70.628906 50.125 70.929688 44.765625 83.238281 C 39.40625 95.546875 50.804688 102.792969 58.886719 103.171875 C 66.964844 103.550781 73.839844 100.304688 77.613281 99.699219 C 81.386719 99.09375 86.523438 102.945312 96.414062 101.433594 C 106.308594 99.925781 108.722656 98.109375 108.875 93.503906 C 109.023438 88.902344 104.417969 87.3125 102.910156 85.804688 C 101.398438 84.292969 101.09375 83.007812 95.960938 83.761719 C 91.527344 84.414062 86.988281 83.640625 83.722656 82.421875 C 82.761719 82.0625 81.703125 82.113281 80.792969 82.585938 C 78.71875 83.652344 74.875 86.238281 69.835938 85.5 C 66.738281 85.046875 63.945312 91.085938 61.453125 93.429688 C 61.453125 93.429688 64.171875 87.386719 64.320312 85.273438 C 64.472656 83.160156 58.054688 81.875 58.054688 81.875 Z M 58.058594 81.882812 " fill-opacity="1" fill-rule="nonzero"/><g clip-path="url(#c8a2398d2e)"><path fill="#000000" d="M 133.902344 91.332031 C 137.996094 91.859375 138.714844 86.738281 138.714844 86.738281 C 140.023438 81.507812 138.730469 78.238281 137.734375 76.65625 C 137.28125 75.929688 137.246094 75.015625 137.664062 74.265625 C 138.644531 72.523438 139.964844 69.15625 138.351562 65.464844 C 136.722656 61.730469 133.035156 60.097656 128.15625 63.171875 C 125.75 64.6875 124.277344 66.789062 123.402344 68.535156 C 122.636719 70.054688 120.902344 70.855469 119.261719 70.40625 C 114.574219 69.121094 109.457031 71.203125 106.691406 74.238281 C 103.324219 77.933594 103.214844 84.128906 107.34375 86.519531 C 111.472656 88.90625 111.253906 94.558594 111.039062 96.40625 C 110.820312 98.25 110.492188 101.511719 119.40625 100.753906 C 122.144531 100.519531 124.566406 99.851562 126.042969 98.824219 C 127.515625 97.792969 131.125 97.066406 130.84375 93.601562 C 130.699219 91.847656 128.882812 90.800781 127.769531 89.730469 C 126.6875 88.691406 125.644531 87.679688 124.945312 86.996094 C 124.457031 86.519531 123.734375 86.398438 123.101562 86.664062 C 120.183594 87.898438 116.367188 86.253906 116.367188 86.253906 C 116.367188 86.253906 121.960938 86.757812 122.863281 83.921875 C 123.628906 81.527344 122.75 77.714844 122.75 77.714844 C 124.152344 79.171875 124.566406 81.957031 124.683594 83.210938 C 124.722656 83.652344 124.894531 84.0625 125.179688 84.402344 C 126.554688 86.035156 130.789062 90.796875 133.902344 91.332031 Z M 133.902344 91.332031 " fill-opacity="1" fill-rule="nonzero"/></g><path fill="#000000" d="M 116.039062 68.140625 C 111.5625 68.304688 109.601562 69.988281 107.519531 71.101562 C 105.335938 72.269531 104.449219 70.496094 103.304688 68.28125 C 102.527344 66.769531 103.039062 65.71875 103.679688 65.117188 C 104.320312 64.515625 105 63.652344 107.632812 63.765625 C 110.265625 63.878906 111.769531 62.109375 111.769531 62.109375 C 109.785156 62.785156 107.210938 62.835938 105.808594 61.742188 C 104.40625 60.652344 104.25 55.304688 104.25 55.304688 C 103.058594 57.539062 103.523438 60.03125 103.523438 61.328125 C 103.523438 62.628906 103.105469 63.09375 102.070312 64.132812 C 101.03125 65.171875 100.09375 65.378906 97.394531 64.238281 C 95.46875 63.421875 93.222656 63.480469 92.097656 63.582031 C 91.632812 63.625 91.164062 63.507812 90.769531 63.257812 C 86.765625 60.730469 82.355469 61.398438 80.773438 60.558594 C 79.109375 59.675781 76.257812 55.359375 78.023438 48.65625 C 79.285156 43.878906 82.460938 41.296875 84.175781 40.207031 C 84.835938 39.789062 85.304688 39.117188 85.453125 38.351562 C 86.34375 33.679688 91.738281 25.921875 100.371094 26.785156 C 109.8125 27.722656 112.183594 34.382812 112.183594 34.382812 C 112.183594 34.382812 117 34.570312 121.703125 38.257812 C 126.40625 41.945312 126.667969 48.117188 126.667969 48.117188 C 126.667969 48.117188 130.695312 49.960938 131.410156 53.535156 C 132.125 57.109375 131.441406 59.449219 129.34375 60.359375 C 126.449219 61.613281 124.253906 64.738281 123.277344 66.042969 C 122.300781 67.347656 120.859375 67.644531 121.152344 64.664062 C 121.453125 61.6875 123.605469 54.875 117.003906 50.753906 C 110.402344 46.632812 102.566406 45.851562 101.027344 44.808594 C 99.488281 43.765625 98.769531 41.011719 99.292969 40.207031 C 99.816406 39.40625 101.492188 38.707031 101.492188 34.804688 C 101.492188 34.804688 100.304688 38.570312 98.003906 39.371094 C 95.707031 40.175781 93.019531 37.699219 93.019531 37.699219 C 93.019531 37.699219 92.777344 39.390625 96.75 40.59375 C 97.898438 40.941406 98.636719 43.800781 98.566406 45.230469 C 98.496094 46.660156 95.472656 49.476562 93.757812 49.914062 C 92.46875 50.246094 90.097656 49.8125 88.382812 50.914062 C 88.382812 50.914062 92.277344 51.105469 92.984375 52.0625 C 94.550781 54.191406 94.171875 57.539062 94.171875 57.539062 C 94.171875 57.539062 95.46875 55.289062 95.109375 52.832031 C 94.726562 50.183594 99.433594 47.359375 100.6875 47.183594 C 101.941406 47.011719 108.53125 48.265625 114.703125 51.472656 C 120.875 54.679688 120.375 60.472656 119.617188 64.6875 C 119.125 67.425781 119.226562 68.03125 116.042969 68.148438 Z M 116.039062 68.140625 " fill-opacity="1" fill-rule="nonzero"/><path fill="#000000" d="M 57.621094 26.875 C 57.621094 26.875 59.390625 20.203125 72.8125 22.859375 C 72.8125 22.859375 75.867188 19.964844 83.742188 21.8125 C 91.621094 23.660156 89.207031 27.277344 87.601562 29.367188 C 86.105469 31.3125 83.917969 33.878906 83.101562 37.007812 C 82.984375 37.449219 82.726562 37.84375 82.351562 38.109375 C 80.902344 39.136719 77.164062 42.257812 75.625 48.089844 C 73.699219 55.40625 76.59375 58.699219 76.59375 60.46875 C 76.59375 62.238281 69.761719 63.121094 66.226562 68.105469 C 66.226562 68.105469 51.355469 68.585938 44.363281 79.035156 C 37.371094 89.484375 26.199219 89.320312 21.617188 83.457031 C 17.039062 77.589844 19.289062 71.5625 19.289062 71.5625 C 19.289062 71.5625 9.964844 65.855469 15.75 56.691406 C 21.539062 47.527344 41.203125 47.632812 43.078125 49.539062 C 46.867188 53.386719 50.230469 53.15625 50.230469 53.15625 C 50.230469 53.15625 44.746094 50.144531 44.53125 47.683594 C 44.316406 45.21875 51.1875 42.796875 51.1875 42.796875 C 51.1875 42.796875 46.824219 42.148438 42.847656 46.128906 C 41.894531 47.078125 29.171875 47.359375 28.324219 45.953125 C 24.832031 40.148438 44.3125 26.722656 53.863281 30.828125 C 63.417969 34.933594 62.105469 39.859375 61.820312 44.101562 C 61.53125 48.347656 61.59375 52.289062 53.109375 56.960938 C 44.621094 61.636719 40.238281 62.445312 31.101562 57.265625 C 31.101562 57.265625 35.609375 60.570312 35.535156 61.800781 C 35.363281 64.5625 30.503906 67.179688 30.503906 67.179688 C 30.503906 67.179688 34.34375 65.78125 36.15625 63.675781 C 38.113281 61.40625 40.082031 61.808594 41.273438 62.496094 C 43.265625 63.648438 38.832031 70.972656 36.132812 72.101562 C 33.160156 73.339844 30.121094 76.167969 30.121094 76.167969 C 30.121094 76.167969 34.949219 73.207031 37.023438 73.9375 C 39.097656 74.667969 40.679688 77.972656 40.679688 77.972656 C 40.679688 77.972656 39.027344 73.75 39.375 72.214844 C 39.722656 70.675781 43.101562 64.492188 44.90625 62.957031 C 46.710938 61.417969 53.632812 58.570312 57.003906 55.964844 C 60.425781 53.320312 61.617188 52.277344 62.84375 53.542969 C 64.074219 54.8125 62.34375 58.804688 63.613281 62.109375 C 63.613281 62.109375 63.996094 57.539062 65.722656 55.925781 C 67.453125 54.3125 70.910156 56.003906 70.910156 56.003906 C 70.910156 56.003906 69.03125 54.234375 66.570312 53.621094 C 64.109375 53.003906 63.304688 51.660156 63.226562 50.046875 C 63.152344 48.433594 63.640625 41.339844 64.59375 40.148438 C 66.164062 38.1875 69.300781 36.21875 71.027344 36.21875 C 72.449219 36.21875 73.714844 39.289062 76.328125 39.214844 C 76.328125 39.214844 73.332031 37.101562 72.871094 34.21875 C 72.414062 31.351562 76.097656 30.070312 76.097656 30.070312 C 76.097656 30.070312 72.949219 29.6875 71.371094 32.722656 C 69.796875 35.757812 65.167969 37.347656 64.1875 37.101562 C 62.652344 36.71875 62.652344 34.144531 59 31.378906 C 57.105469 29.941406 57.039062 29.058594 57.617188 26.875 Z M 57.621094 26.875 " fill-opacity="1" fill-rule="nonzero"/></svg>